<?xml version="1.0" encoding="UTF-8"?>
<svg id="Layer_2" data-name="Layer 2" xmlns="http://www.w3.org/2000/svg" xmlns:xlink="http://www.w3.org/1999/xlink" viewBox="0 0 952.76 177.24">
  <defs>
    <style>
      .cls-1 {
        fill: url(#linear-gradient-2);
      }

      .cls-2 {
        fill: #0b1121;
      }

      .cls-3 {
        fill: url(#linear-gradient);
      }
    </style>
    <linearGradient id="linear-gradient" x1="0" y1="88.62" x2="183.59" y2="88.62" gradientUnits="userSpaceOnUse">
      <stop offset="0" stop-color="#428cce"/>
      <stop offset="1" stop-color="#36c9bd"/>
    </linearGradient>
    <linearGradient id="linear-gradient-2" x1="42.31" y1="100.03" x2="183.59" y2="100.03" xlink:href="#linear-gradient"/>
  </defs>
  <g id="Layer_1-2" data-name="Layer 1">
    <g>
      <g>
        <path class="cls-2" d="m377.38,115.97c0,33.77-27.49,61.27-61.26,61.27-11.16,0-21.64-3-30.66-8.27l9.09-27.17c5.85,4.89,13.37,7.84,21.58,7.84,18.56,0,33.66-15.11,33.66-33.66s-15.11-33.66-33.66-33.66c-17.23,0-31.48,13.01-33.43,29.72v65.21h-28.07V0h28.07v64.67c9.62-6.3,21.11-9.96,33.43-9.96,33.77,0,61.26,27.49,61.26,61.27Z"/>
        <g>
          <rect class="cls-2" x="398.92" y="37.67" width="28.07" height="139.56"/>
          <rect class="cls-2" x="398.92" width="28.07" height="27.01"/>
        </g>
        <g>
          <rect class="cls-2" x="205" y="37.67" width="28.07" height="139.56"/>
          <rect class="cls-2" x="205" width="28.07" height="27.01"/>
        </g>
        <path class="cls-2" d="m448.69,111.57c-2.43,33.68,23.01,63.07,56.69,65.5,33.68,2.43,63.09-22.98,65.52-56.67,2.44-33.71-23.01-63.09-56.69-65.52-33.68-2.43-63.09,22.98-65.52,56.69Zm94.68,6.84c-1.34,18.51-17.49,32.49-36,31.15-18.51-1.34-32.49-17.49-31.15-36,1.34-18.53,17.49-32.49,36-31.15,18.51,1.34,32.49,17.47,31.15,36Z"/>
        <path class="cls-2" d="m622.89,115.97c0,33.77,27.49,61.27,61.26,61.27,11.16,0,21.64-3,30.66-8.27l-9.09-27.17c-5.85,4.89-13.37,7.84-21.58,7.84-18.56,0-33.66-15.11-33.66-33.66,0-18.56,15.11-33.66,33.66-33.66,17.23,0,31.48,13.01,33.43,29.72v65.21s28.07,0,28.07,0V54.89s-28.07,0-28.07,0v9.78c-9.62-6.3-21.11-9.96-33.43-9.96-33.77,0-61.26,27.49-61.26,61.27Z"/>
        <circle class="cls-2" cx="596.97" cy="162.24" r="15"/>
        <g>
          <path class="cls-2" d="m952.76,105.41v71.83h-28v-71.83c0-13.98-11.38-25.37-25.4-25.37s-25.37,11.38-25.37,25.37v71.83h-28.03v-71.83c0-13.98-11.35-25.37-25.37-25.37s-25.37,11.38-25.37,25.37v71.83h-27.91V52.53h27.91v5.89c5.46-2.98,11.53-5,17.97-5.89h14.79c12.6,1.73,23.81,7.92,31.98,16.87,8.18-8.96,19.39-15.14,31.98-16.87h14.79c25.95,3.61,46,25.95,46,52.87Z"/>
          <polygon class="cls-2" points="795.24 52.16 795.24 52.53 767.33 52.53 767.33 177.24 767.21 177.24 767.21 52.16 795.24 52.16"/>
        </g>
      </g>
      <g>
        <path class="cls-3" d="m183.59,0c-30.97,36.2-61.93,72.41-92.9,108.61-20.86-24.16-41.73-48.33-62.59-72.49v141.11H0V0h34.04c18.89,21.87,37.77,43.74,56.66,65.61L147.36,0h36.23Z"/>
        <polygon class="cls-1" points="183.59 22.82 183.59 177.24 155.49 177.24 155.49 98.33 109.26 151.86 90.7 173.36 72.13 151.86 72.11 151.84 62.73 140.97 42.31 117.33 42.31 74.33 81.3 119.48 90.68 130.35 90.7 130.36 141.34 71.72 155.49 55.34 162.11 47.67 162.12 47.68 183.59 22.82"/>
      </g>
    </g>
  </g>
</svg>